<svg xmlns="http://www.w3.org/2000/svg" viewBox="0 0 467.22 134.34"><defs><style>.cls-1,.cls-3{fill:#00a4fa;}.cls-2{fill:#fff;}.cls-3{font-size:38px;font-family:Aware-Bold, Aware;font-weight:700;}.cls-4{letter-spacing:-0.02em;}.cls-5{letter-spacing:0.05em;}</style></defs><g id="katman_2" data-name="katman 2"><g id="katman_1-2" data-name="katman 1"><path class="cls-1" d="M63.72,35.64a23.58,23.58,0,0,1,3.65,5.26h0a16.85,16.85,0,0,0,1.23,2.31l-3.72,4.4a14.68,14.68,0,0,0,.78-4.19,15.32,15.32,0,0,0-.25-3.25A19.39,19.39,0,0,0,62.78,36a21.71,21.71,0,0,0-9.19-6.3A22.75,22.75,0,0,1,63.72,35.64Z"/><path class="cls-1" d="M73.4,131.21A17.87,17.87,0,0,1,68,129.13a19,19,0,0,1-7.09-8,23.44,23.44,0,0,1-2.39-7.42,11,11,0,0,1,1.91-.93,12.17,12.17,0,0,1,1.81-.49,21.77,21.77,0,0,0,2.68,8.89,19.28,19.28,0,0,0,16.29,10.27A21.22,21.22,0,0,1,73.4,131.21Z"/><path class="cls-1" d="M76.21,69.54A15,15,0,0,1,80.64,69a14.21,14.21,0,0,1,4.41.84l-.13,1.36a11.89,11.89,0,0,0-2-.81,11.39,11.39,0,0,0-2.18-.43,16.62,16.62,0,0,0-5,.26A17.21,17.21,0,0,0,70,72.62a8.72,8.72,0,0,0-.92.63A21,21,0,0,1,76.21,69.54Z"/><path class="cls-1" d="M4.49,122.93a49.47,49.47,0,0,1-3.29-9.67,51.14,51.14,0,0,1-1-15.59,62.67,62.67,0,0,1,4.86-20,67.38,67.38,0,0,1,10-16.26A124.16,124.16,0,0,1,31,45.29,74.65,74.65,0,0,0,37.3,39.4a44,44,0,0,0,6.93-8.71,35.82,35.82,0,0,0,4-10.48,17.25,17.25,0,0,0-.59-5.35C45.92,8.53,41,5,39,3.57A25.77,25.77,0,0,0,34.2.86,30.1,30.1,0,0,1,38.77,2,25.28,25.28,0,0,1,47.71,7.1a16.39,16.39,0,0,1,3.72,4.24c.65,1.14,2.18,4.25,2.59,5.12l.08.16A26.39,26.39,0,0,0,55.58,19a31.14,31.14,0,0,1,5.06,3.13c3.81,2.91,6.35,6.26,9.58,10.53.67.88,1.2,1.61,1.53,2.08a23.46,23.46,0,0,0,4.48-.36A26.22,26.22,0,0,0,82.1,32.6a32.31,32.31,0,0,0,6.48-3.44A35,35,0,0,0,93.44,25c1.18-1.17,2.12-2.23,2.81-3a19.27,19.27,0,0,0,1.28-3.58A21.3,21.3,0,0,0,98,12a35.6,35.6,0,0,0-.84-6.44,28.25,28.25,0,0,1,1.73,2.51c7.62,12.42,3.32,27.66,2.9,29-.14.44-1,3.14-1.44,4.55-.48,1.65-.81,2.44-.81,2.51-.28,2.24,1.4,3.94,3.27,6.28a48.44,48.44,0,0,1,5.53,8.38,25.2,25.2,0,0,1,2.63,8.3c.37,2.93-.09,3.91.51,7.59A27.53,27.53,0,0,0,112.77,80a28.42,28.42,0,0,0,3.85,6.88,42.33,42.33,0,0,0,3.14,4,4,4,0,0,1,.61,2.73,4.34,4.34,0,0,1-1.87,2.71,5.78,5.78,0,0,1-2.38,1,9,9,0,0,1-.09,2.78,9.24,9.24,0,0,1-1.83,3.87,13.11,13.11,0,0,1-2,2.13c-4.49,4.07-4.26,3.89-4.45,4-4,3.29-5.76,3.66-6.64,6a3.49,3.49,0,0,0-.24,2.22c.39,1.41,2,2.27,4.57,3.18,4.66,1.63,7.21-.68,12,1a13.09,13.09,0,0,1,2,.88,25,25,0,0,0-5,0c-4.09.41-3.95,1-6.18,1.12a15.26,15.26,0,0,1-7.29-1.52,46.55,46.55,0,0,1-5.45-3.73c-1-.77-1.15-.9-1.33-1l-.23-.15c-4.47-2.72-14.5-3.75-14.5-3.75-10-1-12.46-.79-13.85-.62a35.17,35.17,0,0,0-5.7,1.12,32.16,32.16,0,0,0-10.08,5,24.38,24.38,0,0,1,6.5-5.3c.37-.21,2-.87,4.35-1.89,5.18-2.23,10.61-1.83,16-1.61a37.18,37.18,0,0,1,6,.74c3.26.66,6.49,1.49,9.73,2.25,1,.24,2.19.89,3.1.65a17.38,17.38,0,0,0,2.56-.83,17.7,17.7,0,0,0,2.62-1.38c2.37-1.48,3.55-2.22,3.48-2.86-.1-.81-1.94-.82-6.79-2a98.09,98.09,0,0,0-9.61-2.33c-.89-.14-1.63-.24-2.13-.3a25.29,25.29,0,0,1,4.05-.11,39,39,0,0,1,7.57,1.51,40.23,40.23,0,0,0,7.92,1.5,6.46,6.46,0,0,0,2.35-.31A7.15,7.15,0,0,0,110,106c1.56-1.37,3.31-2.89,3.72-5.39a5.09,5.09,0,0,0-.08-2.43c-.8-2.52-3.78-3.59-3.64-3.85s1.85,1,3.94.74c1.11-.12,2.81-.8,3.08-1.94.36-1.48-2-2.46-4.9-6.88-.43-.65-.8-1.28-1.12-1.86a26.27,26.27,0,0,1-2.93-9.55c-.55-4.7.24-4.33-.36-7.73-.71-4-2.36-6.86-4.07-9.78A47.39,47.39,0,0,0,97.22,49,34.53,34.53,0,0,0,90,42.54a12.82,12.82,0,0,0-3.66-1.92,60.61,60.61,0,0,0-7.9-1.78c-4.17-.78-5.26-1-5.89-.33-.76.85-.29,2.51.13,3.58-1.73-3-3.32-5.35-4.53-7.09A46.32,46.32,0,0,0,59,24.84c-2.56-2-3.57-2.22-4.38-2.13-2.3.24-3.69,2.83-5.66,6.61A49.51,49.51,0,0,0,44.83,41a33.86,33.86,0,0,0-1.06,6.37,29.84,29.84,0,0,0,1.37,10.18c.7,2.2,1.92,5.13,3.39,8.64.11.25.2.46.25.6a59.94,59.94,0,0,1-5.59-6.88,18.34,18.34,0,0,1-2.64-4.54,49.48,49.48,0,0,1-1.35-5.7c-.28-1.3-.52-2.37-.68-3.06-.43.18-1.09.46-1.88.83-7.9,3.72-12.56,9.25-16.51,14.06a61.84,61.84,0,0,0-8.84,13.59c-.57,1.2-1.07,2.35-1.5,3.43A64.42,64.42,0,0,0,7.38,86,93.57,93.57,0,0,0,4,102.73a82.91,82.91,0,0,0-.2,11.94C4,118,4.24,120.79,4.49,122.93Z"/><path class="cls-1" d="M37.09,126.51c.39-3.36.3-3.78.76-8.81.45-4.86.67-7.29,1-9.26.8-4.8,1.44-8.83,3.87-13.37a36.65,36.65,0,0,1,6.53-8.5c2.87-3,5.91-5.37,6.11-5.16S48.1,87.35,45.14,95.07a77,77,0,0,0-3,10.47c-.1.49-.18.89-.23,1.15l1-1c1.39-1.34,2.7-2.78,4.19-4a69.64,69.64,0,0,1,5.74-4.19,37.58,37.58,0,0,1,3.93-2.07c.12-.06.32,0,.48,0a44.4,44.4,0,0,0-6.51,5.09,35.06,35.06,0,0,0-7.29,9,42.71,42.71,0,0,0-4.29,13c-.13.64-.22,1.18-.28,1.55A12.05,12.05,0,0,1,40,122.83c1.79-1.58,3.51-3.24,5.42-4.65a33.7,33.7,0,0,1,5.87-3.67,30.13,30.13,0,0,1,4.44-1.71,57.07,57.07,0,0,0-6.78,4.29A36.52,36.52,0,0,0,43.32,122a30.63,30.63,0,0,0-4,5.32c-2.3,4-2.86,7.14-3.17,7.07S36.53,131.34,37.09,126.51Z"/><path class="cls-1" d="M87.1,69.37c2.3-.18,5.28-1.05,6.78-.29A5.32,5.32,0,0,1,96,71c.91,1.36,1.53,2.91,2.44,4.26a18.25,18.25,0,0,0,2.21,2.28.24.24,0,0,1,0,.27c-.26.28-1.46-1-3.14-1.36-1.13-.26-1.38.13-3.58.26a10.27,10.27,0,0,1-3.42-.12c-1.77-.49-2-1.61-4.54-4s-4.14-3-3.94-3.49S84,69.63,87.1,69.37Z"/><path class="cls-1" d="M30,66.51a19.18,19.18,0,0,1,5-6,21.46,21.46,0,0,1,7.81-4.11,10.72,10.72,0,0,1,1.53,1.47,9.94,9.94,0,0,1,1.08,1.53A16.91,16.91,0,0,0,35,63.68,17.24,17.24,0,0,0,31,69.75a23,23,0,0,0-1.82,10.94C28.6,78.9,26.87,72.64,30,66.51Z"/><path class="cls-1" d="M97.39,12.65A19.14,19.14,0,0,1,100,20a21.27,21.27,0,0,1-.49,8.81,10.44,10.44,0,0,1-3.92.7,16.92,16.92,0,0,0,1.62-11.08,17.24,17.24,0,0,0-3.13-6.6,23,23,0,0,0-8.44-7.19C87.47,5.1,93.73,6.84,97.39,12.65Z"/><path class="cls-1" d="M51.28,8.62a15.27,15.27,0,0,1,2.21,7.51,15.22,15.22,0,0,1-3.05,9.21l-1.87,0a17,17,0,0,0,2.22-11A17.25,17.25,0,0,0,48,7.64,23.09,23.09,0,0,0,40,0C41.8.54,48,2.63,51.28,8.62Z"/><path class="cls-1" d="M30.58,55a18.9,18.9,0,0,1,6-5,21.28,21.28,0,0,1,5.11-2.06l.61,3.33a26.13,26.13,0,0,0-6.2,1.9,16,16,0,0,0-4.94,3,17.65,17.65,0,0,0-3.52,5.22A14.4,14.4,0,0,1,30.58,55Z"/><path class="cls-2" d="M92.18,71.44a3.27,3.27,0,0,0-.08,2.74,3.11,3.11,0,0,0,1.19,1.36,2.58,2.58,0,0,1-2.85,0,2.47,2.47,0,0,1-.86-1.82,3.36,3.36,0,0,1,1.1-2.63c.9-.8,2.18-1,2.31-.77S92.56,70.71,92.18,71.44Z"/><text class="cls-3" transform="translate(237.85 67.46)">MYTH <tspan class="cls-4" x="-89.55" y="50">G</tspan><tspan class="cls-5" x="-58.83" y="50">A</tspan><tspan x="-24.93" y="50">ME STUDIO</tspan></text></g></g></svg>